<svg width="20" height="20" viewBox="0 0 20 20" fill="none" xmlns="http://www.w3.org/2000/svg">
<path d="M17 12.25C16.3333 12.4166 15.6667 12.5 15 12.5C10.8333 12.5 7.5 9.16663 7.5 4.99996C7.5 4.33329 7.58333 3.66663 7.75 2.99996C7.83333 2.74996 7.75 2.41663 7.5 2.16663C7.25 1.91663 7 1.83329 6.66667 1.91663C2.75 3.08329 0 6.74996 0 10.8333C0 15.9166 4.08333 20 9.16667 20C13.25 20 16.9167 17.25 18 13.25C18.0833 13 18 12.6666 17.75 12.4166C17.5833 12.25 17.25 12.1666 17 12.25Z" fill="#808191"/>
<path d="M10.8333 3.33333H11.6667V4.16667C11.6667 4.66667 12 5 12.5 5C13 5 13.3333 4.66667 13.3333 4.16667V3.33333H14.1667C14.6667 3.33333 15 3 15 2.5C15 2 14.6667 1.66667 14.1667 1.66667H13.3333V0.833333C13.3333 0.333333 13 0 12.5 0C12 0 11.6667 0.333333 11.6667 0.833333V1.66667H10.8333C10.3333 1.66667 10 2 10 2.5C10 3 10.3333 3.33333 10.8333 3.33333Z" fill="#808191"/>
<path d="M19.1667 6.66667H18.3333V5.83333C18.3333 5.33333 18 5 17.5 5C17 5 16.6667 5.33333 16.6667 5.83333V6.66667H15.8333C15.3333 6.66667 15 7 15 7.5C15 8 15.3333 8.33333 15.8333 8.33333H16.6667V9.16667C16.6667 9.66667 17 10 17.5 10C18 10 18.3333 9.66667 18.3333 9.16667V8.33333H19.1667C19.6667 8.33333 20 8 20 7.5C20 7 19.6667 6.66667 19.1667 6.66667Z" fill="#808191"/>
</svg>
